<svg width="30" height="30" viewBox="0 0 30 30" fill="none" xmlns="http://www.w3.org/2000/svg"><path d="M24.463 6.827a21.8 21.8 0 0 0-5.446-1.684q-.386.694-.698 1.426a20.2 20.2 0 0 0-6.045 0 15 15 0 0 0-.697-1.426c-1.882.322-3.715.89-5.45 1.689-3.448 5.126-4.382 10.125-3.915 15.054a21.9 21.9 0 0 0 6.68 3.371c.54-.731 1.02-1.507 1.43-2.319a14 14 0 0 1-2.252-1.081q.284-.209.552-.418a15.62 15.62 0 0 0 13.356 0c.18.148.365.29.552.418-.72.427-1.475.79-2.257 1.083.41.812.89 1.587 1.43 2.317a21.8 21.8 0 0 0 6.685-3.369c.548-5.715-.937-10.669-3.925-15.06M10.914 18.855c-1.302 0-2.377-1.188-2.377-2.649s1.038-2.66 2.373-2.66 2.403 1.199 2.38 2.66-1.049 2.65-2.376 2.65m8.771 0c-1.304 0-2.375-1.188-2.375-2.649s1.038-2.66 2.375-2.66c1.338 0 2.396 1.199 2.374 2.66-.023 1.461-1.047 2.65-2.374 2.65" fill="#fff" fill-opacity=".8"/></svg>