<svg width="30" height="30" viewBox="0 0 30 30" fill="none" xmlns="http://www.w3.org/2000/svg"><path d="M14.7 3.14c6.63 0 12 5.37 12 12a12.02 12.02 0 0 1-8.175 11.386c-.6.12-.825-.255-.825-.57 0-.405.015-1.695.015-3.3 0-1.125-.375-1.845-.81-2.22 2.67-.3 5.475-1.32 5.475-5.925 0-1.32-.465-2.385-1.23-3.225.12-.3.54-1.53-.12-3.18 0 0-1.005-.33-3.3 1.23-.96-.27-1.98-.405-3-.405s-2.04.135-3 .405c-2.295-1.545-3.3-1.23-3.3-1.23-.66 1.65-.24 2.88-.12 3.18-.765.84-1.23 1.92-1.23 3.225 0 4.59 2.79 5.625 5.46 5.925-.345.3-.66.825-.765 1.605-.69.315-2.415.825-3.495-.99-.225-.36-.9-1.245-1.845-1.23-1.005.015-.405.57.015.795.51.285 1.095 1.35 1.23 1.695.24.675 1.02 1.965 4.035 1.41 0 1.005.015 1.95.015 2.235 0 .315-.225.675-.825.57A11.99 11.99 0 0 1 2.7 15.14c0-6.63 5.37-12 12-12" fill="#fff" fill-opacity=".8"/></svg>