<svg width="30" height="30" viewBox="0 0 30 30" fill="none" xmlns="http://www.w3.org/2000/svg"><path d="M24.28 4.4H5.92A1.62 1.62 0 0 0 4.3 6.02v18.36A1.62 1.62 0 0 0 5.92 26h18.36a1.62 1.62 0 0 0 1.62-1.62V6.02a1.62 1.62 0 0 0-1.62-1.62m-13.5 18.36H7.54v-9.72h3.24zM9.16 11.15a1.89 1.89 0 1 1 1.944-1.89 1.923 1.923 0 0 1-1.944 1.89m13.5 11.61h-3.24v-5.12c0-1.533-.648-2.084-1.49-2.084a1.88 1.88 0 0 0-1.75 2.01.7.7 0 0 0 0 .15v5.044h-3.24v-9.72h3.132v1.404a3.36 3.36 0 0 1 2.916-1.512c1.674 0 3.629.929 3.629 3.953z" fill="#fff" fill-opacity=".8"/></svg>