<svg width="282" height="146" viewBox="0 0 282 146" fill="none" xmlns="http://www.w3.org/2000/svg"><g clip-path="url(#a)"><circle cx="191" cy="72.487" r="37.5" stroke="#232323"/><circle cx="191" cy="72.487" r="69.5" stroke="#232323"/><circle cx="191" cy="72.487" r="101.5" stroke="#232323"/><circle cx="191" cy="72.487" r="133.5" stroke="#232323"/><circle cx="191" cy="72.487" r="165.5" stroke="#232323"/><circle cx="191" cy="72.487" r="197.5" stroke="#232323"/><rect x="108" y="93.487" width="93" height="83" rx="8.04" fill="#FFD695"/><rect x="156" y="-26.513" width="74" height="83" rx="8.04" fill="#A3DCD4"/><rect x="217" y="72.487" width="79" height="83" rx="8.04" fill="#5A5A5A"/><path d="M119.88 127.495q-.252 0-.504-.072l-.504-.072q-.648-.18-.9-.756-.324-.72 0-1.728.36-1.044 1.152-2.664.144-.288.288-.648.18-.36.324-.684-.468.18-1.008.612-.504.396-1.044.828-.36.252-.792.216a1.23 1.23 0 0 1-.756-.396 1.03 1.03 0 0 1-.18-.792q.036-.432.36-.756.504-.36 1.044-.792a7.6 7.6 0 0 1 1.152-.72q1.476-.756 2.7-.396.576.108.864.72.288.576-.036 1.44-.288.864-1.008 2.34-.18.432-.396.864-.18.432-.36.828a.8.8 0 0 1-.108.252l-.072.216q.756-.108 2.196-.756 1.476-.684 3.96-2.664a46 46 0 0 0 2.412-2.016 73 73 0 0 0 1.728-1.656l.648-.648q.432-.504 1.044-.324a.7.7 0 0 1 .468.252q.18.18.288.36.252.504.036 1.188-.18.648-.792 2.124l-.432.936q-.18.468-.36.864-.036.144-.072.252a.3.3 0 0 1-.036.144q.684-.108 1.44-.576a14 14 0 0 0 1.512-1.116q.756-.612 1.26-1.044.36-.324.792-.288t.756.36q.288.36.252.792 0 .432-.36.756a34 34 0 0 1-2.304 1.836q-1.152.864-2.34 1.296-1.152.396-2.34.108-.576-.252-.828-.72a2.15 2.15 0 0 1-.144-1.116q.108-.612.432-1.512-.396.36-.828.684-.396.324-.864.72-4.968 3.924-7.74 3.924m19.16 0q-.252 0-.504-.072l-.504-.072q-.648-.18-.9-.756-.324-.72 0-1.728.36-1.044 1.152-2.664.144-.288.288-.648.18-.36.324-.684-.468.18-1.008.612-.504.396-1.044.828-.36.252-.792.216a1.23 1.23 0 0 1-.756-.396 1.03 1.03 0 0 1-.18-.792q.036-.432.36-.756.504-.36 1.044-.792a7.6 7.6 0 0 1 1.152-.72q1.476-.756 2.7-.396.576.108.864.72.288.576-.036 1.44-.288.864-1.008 2.34-.18.432-.396.864-.18.432-.36.828a.8.8 0 0 1-.108.252l-.072.216q.756-.108 2.196-.756 1.476-.684 3.96-2.664a46 46 0 0 0 2.412-2.016 73 73 0 0 0 1.728-1.656l.648-.648q.432-.504 1.044-.324a.7.7 0 0 1 .468.252q.18.18.288.36.252.504.036 1.188-.18.648-.792 2.124l-.432.936q-.18.468-.36.864-.036.144-.072.252a.3.3 0 0 1-.036.144q.684-.108 1.44-.576a14 14 0 0 0 1.512-1.116q.756-.612 1.26-1.044.36-.324.792-.288t.756.36q.288.36.252.792 0 .432-.36.756a34 34 0 0 1-2.304 1.836q-1.152.864-2.34 1.296-1.152.396-2.34.108-.576-.252-.828-.72a2.15 2.15 0 0 1-.144-1.116q.108-.612.432-1.512-.396.36-.828.684-.396.324-.864.72-4.968 3.924-7.74 3.924m19.16 0q-.252 0-.504-.072l-.504-.072q-.648-.18-.9-.756-.324-.72 0-1.728.36-1.044 1.152-2.664.144-.288.288-.648.18-.36.324-.684-.468.18-1.008.612-.504.396-1.044.828-.36.252-.792.216a1.23 1.23 0 0 1-.756-.396 1.03 1.03 0 0 1-.18-.792q.036-.432.36-.756.504-.36 1.044-.792a7.6 7.6 0 0 1 1.152-.72q1.476-.756 2.7-.396.576.108.864.72.288.576-.036 1.44-.288.864-1.008 2.34-.18.432-.396.864-.18.432-.36.828a.8.8 0 0 1-.108.252l-.072.216q.756-.108 2.196-.756 1.476-.684 3.96-2.664a46 46 0 0 0 2.412-2.016 73 73 0 0 0 1.728-1.656l.648-.648q.432-.504 1.044-.324a.7.7 0 0 1 .468.252q.18.18.288.36.252.504.036 1.188-.18.648-.792 2.124l-.432.936q-.18.468-.36.864-.036.144-.072.252a.3.3 0 0 1-.036.144q.684-.108 1.44-.576a14 14 0 0 0 1.512-1.116q.756-.612 1.26-1.044.36-.324.792-.288t.756.36q.288.36.252.792 0 .432-.36.756a34 34 0 0 1-2.304 1.836q-1.152.864-2.34 1.296-1.152.396-2.34.108-.576-.252-.828-.72a2.15 2.15 0 0 1-.144-1.116q.108-.612.432-1.512-.396.36-.828.684-.396.324-.864.72-4.968 3.924-7.74 3.924m19.16 0q-.252 0-.504-.072l-.504-.072q-.648-.18-.9-.756-.324-.72 0-1.728.36-1.044 1.152-2.664.144-.288.288-.648.18-.36.324-.684-.468.18-1.008.612-.504.396-1.044.828-.36.252-.792.216a1.23 1.23 0 0 1-.756-.396 1.03 1.03 0 0 1-.18-.792q.036-.432.36-.756.504-.36 1.044-.792a7.6 7.6 0 0 1 1.152-.72q1.476-.756 2.7-.396.576.108.864.72.288.576-.036 1.44-.288.864-1.008 2.34-.18.432-.396.864-.18.432-.36.828a.8.8 0 0 1-.108.252l-.072.216q.756-.108 2.196-.756 1.476-.684 3.96-2.664a46 46 0 0 0 2.412-2.016 73 73 0 0 0 1.728-1.656l.648-.648q.432-.504 1.044-.324a.7.7 0 0 1 .468.252q.18.18.288.36.252.504.036 1.188-.18.648-.792 2.124l-.432.936q-.18.468-.36.864-.036.144-.072.252a.3.3 0 0 1-.036.144q.684-.108 1.44-.576a14 14 0 0 0 1.512-1.116q.756-.612 1.26-1.044.36-.324.792-.288t.756.36q.288.36.252.792 0 .432-.36.756a34 34 0 0 1-2.304 1.836q-1.152.864-2.34 1.296-1.152.396-2.34.108-.576-.252-.828-.72a2.15 2.15 0 0 1-.144-1.116q.108-.612.432-1.512-.396.36-.828.684-.396.324-.864.72-4.968 3.924-7.74 3.924m-57.48 27q-.252 0-.504-.072l-.504-.072q-.648-.18-.9-.756-.324-.72 0-1.728.36-1.044 1.152-2.664.144-.288.288-.648.18-.36.324-.684-.468.18-1.008.612-.504.396-1.044.828-.36.252-.792.216a1.23 1.23 0 0 1-.756-.396 1.03 1.03 0 0 1-.18-.792q.036-.432.36-.756.504-.36 1.044-.792a7.6 7.6 0 0 1 1.152-.72q1.476-.756 2.7-.396.576.108.864.72.288.576-.036 1.44-.288.864-1.008 2.34-.18.432-.396.864-.18.432-.36.828a.8.8 0 0 1-.108.252l-.072.216q.756-.108 2.196-.756 1.476-.684 3.96-2.664a46 46 0 0 0 2.412-2.016 73 73 0 0 0 1.728-1.656l.648-.648q.432-.504 1.044-.324a.7.7 0 0 1 .468.252q.18.18.288.36.252.504.036 1.188-.18.648-.792 2.124l-.432.936q-.18.468-.36.864-.036.144-.072.252a.3.3 0 0 1-.036.144q.684-.108 1.44-.576a14 14 0 0 0 1.512-1.116q.756-.612 1.26-1.044.36-.324.792-.288t.756.36q.288.36.252.792 0 .432-.36.756a34 34 0 0 1-2.304 1.836q-1.152.864-2.34 1.296-1.152.396-2.34.108-.576-.252-.828-.72a2.15 2.15 0 0 1-.144-1.116q.108-.612.432-1.512-.396.36-.828.684-.396.324-.864.72-4.968 3.924-7.74 3.924m19.16 0q-.252 0-.504-.072l-.504-.072q-.648-.18-.9-.756-.324-.72 0-1.728.36-1.044 1.152-2.664.144-.288.288-.648.18-.36.324-.684-.468.18-1.008.612-.504.396-1.044.828-.36.252-.792.216a1.23 1.23 0 0 1-.756-.396 1.03 1.03 0 0 1-.18-.792q.036-.432.36-.756.504-.36 1.044-.792a7.6 7.6 0 0 1 1.152-.72q1.476-.756 2.7-.396.576.108.864.72.288.576-.036 1.44-.288.864-1.008 2.34-.18.432-.396.864-.18.432-.36.828a.8.8 0 0 1-.108.252l-.072.216q.756-.108 2.196-.756 1.476-.684 3.96-2.664a46 46 0 0 0 2.412-2.016 73 73 0 0 0 1.728-1.656l.648-.648q.432-.504 1.044-.324a.7.7 0 0 1 .468.252q.18.18.288.36.252.504.036 1.188-.18.648-.792 2.124l-.432.936q-.18.468-.36.864-.036.144-.072.252a.3.3 0 0 1-.036.144q.684-.108 1.44-.576a14 14 0 0 0 1.512-1.116q.756-.612 1.26-1.044.36-.324.792-.288t.756.36q.288.36.252.792 0 .432-.36.756a34 34 0 0 1-2.304 1.836q-1.152.864-2.34 1.296-1.152.396-2.34.108-.576-.252-.828-.72a2.15 2.15 0 0 1-.144-1.116q.108-.612.432-1.512-.396.36-.828.684-.396.324-.864.72-4.968 3.924-7.74 3.924m19.16 0q-.252 0-.504-.072l-.504-.072q-.648-.18-.9-.756-.324-.72 0-1.728.36-1.044 1.152-2.664.144-.288.288-.648.18-.36.324-.684-.468.18-1.008.612-.504.396-1.044.828-.36.252-.792.216a1.23 1.23 0 0 1-.756-.396 1.03 1.03 0 0 1-.18-.792q.036-.432.36-.756.504-.36 1.044-.792a7.6 7.6 0 0 1 1.152-.72q1.476-.756 2.7-.396.576.108.864.72.288.576-.036 1.44-.288.864-1.008 2.34-.18.432-.396.864-.18.432-.36.828a.8.8 0 0 1-.108.252l-.072.216q.756-.108 2.196-.756 1.476-.684 3.96-2.664a46 46 0 0 0 2.412-2.016 73 73 0 0 0 1.728-1.656l.648-.648q.432-.504 1.044-.324a.7.7 0 0 1 .468.252q.18.18.288.36.252.504.036 1.188-.18.648-.792 2.124l-.432.936q-.18.468-.36.864-.036.144-.072.252a.3.3 0 0 1-.036.144q.684-.108 1.44-.576a14 14 0 0 0 1.512-1.116q.756-.612 1.26-1.044.36-.324.792-.288t.756.36q.288.36.252.792 0 .432-.36.756a34 34 0 0 1-2.304 1.836q-1.152.864-2.34 1.296-1.152.396-2.34.108-.576-.252-.828-.72a2.15 2.15 0 0 1-.144-1.116q.108-.612.432-1.512-.396.36-.828.684-.396.324-.864.72-4.968 3.924-7.74 3.924" fill="#3F160C"/><path d="M248.75 108.237v10.5m16.5 0v-12a3 3 0 0 0-3-3H257m0 0 4.125-4.125M257 103.737l4.125 4.125m-8.25-4.125a4.125 4.125 0 1 1-8.25 0 4.125 4.125 0 0 1 8.25 0m0 19.5a4.125 4.125 0 1 1-8.25 0 4.125 4.125 0 0 1 8.25 0m16.5 0a4.125 4.125 0 1 1-8.25 0 4.125 4.125 0 0 1 8.25 0" stroke="#EAEAEA" stroke-width="2.25" stroke-linecap="round" stroke-linejoin="round"/><path d="M173.496 14.175a1.875 1.875 0 0 1 3.75 0v6.315h5.213v-3h6.03v6.57a.93.93 0 0 1-.93.93h-6.93a3.383 3.383 0 0 1-3.383-3.383v1.508a1.873 1.873 0 0 1-3.2 1.325 1.87 1.87 0 0 1-.55-1.325z" fill="#D67D00"/><path d="m175.784 9.727 11.887 5.16c.503.217.825.705.825 1.253v7.357h-5.107c-1.41 0-2.678-.645-3.465-1.725a1.227 1.227 0 0 0-1.59-.337l-2.445 1.364a2.254 2.254 0 0 1-3.068-.812H172v-2.625l-.994.01a1.89 1.89 0 0 1-1.627.938 1.84 1.84 0 0 1-.938-.255 1.88 1.88 0 0 1-.69-2.565l3.9-6.51a3.32 3.32 0 0 1 4.133-1.253m-3.69 7.76h3.094v.518l1.698-.98q.172-.099.349-.164a2.617 2.617 0 0 0-2.606-2.372c-.503 0-.968 1.02-1.215 1.463z" fill="#FFC83D"/><path d="m180.389 4.05 1.785 1.035c.225.127.3.412.172.637l-7.051 12.22-1.657.957a2.25 2.25 0 0 0-1.066 1.441 2.27 2.27 0 0 0 .323 1.764l-.419.726a1.7 1.7 0 0 1-.495.54l-2.062 1.56a.35.35 0 0 1-.373.014.36.36 0 0 1-.175-.329l.285-2.58c.023-.256.098-.503.225-.72l9.87-17.093a.467.467 0 0 1 .638-.173" fill="#F95725"/><path d="m172.414 22.93-2.572-1.544a1.7 1.7 0 0 0-.186.649l-.198 1.797 1.101.612 1.422-1.075c.17-.12.318-.27.433-.44" fill="#FBB8AB"/><path d="m169.514 23.28-.143 1.334a.351.351 0 0 0 .548.316l1.05-.803z" fill="#000"/><path d="m178.296 6.742 2.595 1.5.78-1.35-2.595-1.5z" fill="#D3D3D3"/><path d="M196.97 5.258a.496.496 0 0 1 .667-.208l1.199.63c.96.498 1.563 1.5 1.563 2.582v.983a.49.49 0 0 1-.494.493.494.494 0 0 1-.493-.493v-.983a1.93 1.93 0 0 0-1.032-1.707h-.002l-1.2-.63a.495.495 0 0 1-.208-.667m7.632 0a.493.493 0 0 1-.207.667l-1.203.63a1.92 1.92 0 0 0-1.031 1.707v.983a.492.492 0 0 1-.842.349.5.5 0 0 1-.145-.35v-.982c0-1.082.603-2.084 1.562-2.583l1.2-.629a.495.495 0 0 1 .666.208m-.429 12.904a.997.997 0 1 0 0-1.995.997.997 0 0 0 0 1.995m1.995 1.995a.998.998 0 1 1-1.997-.002.998.998 0 0 1 1.997.002m.997 3.45a.996.996 0 0 0 .998-.997.998.998 0 1 0-.998.997m4.32-.105a.997.997 0 1 1-1.995 0 .997.997 0 0 1 1.995 0m3.45 0a.997.997 0 1 1-1.995 0 .997.997 0 0 1 1.995 0" fill="#008463"/><path d="M210.27 23.502h4.417c1.523 0 2.805-1.245 2.775-2.775a2.72 2.72 0 0 0-2.722-2.67h-3.33c-.72 0-1.35-.48-1.538-1.177l-1.192-4.335a5.54 5.54 0 0 0-5.34-4.073h-3.488a2.8 2.8 0 0 0-2.592 1.756l-.52 1.02.52.926a2.72 2.72 0 0 0 2.54 1.743h2.4c.72 0 1.35.48 1.537 1.178l1.193 4.335a5.54 5.54 0 0 0 5.34 4.072" fill="#00D26A"/><path d="M197.077 11.247a2.6 2.6 0 0 1 .186-1.027.63.63 0 0 0-.763.615v.735a.635.635 0 0 0 .764.615 2.7 2.7 0 0 1-.187-.938m2.453-.412a.634.634 0 0 0-.63-.63.624.624 0 0 0-.63.63v.735c0 .345.285.63.63.63s.63-.285.63-.63z" fill="#212121"/></g><defs><clipPath id="a"><rect width="281.568" height="145.487" rx="12.067" fill="#fff"/></clipPath></defs></svg>